# xmcd
#
# Track frame offsets: 
#        150
#        11650
#        31229
#        44118
#        60529
#        72288
#        92195
#        109657
#        123329
#        153120
#        182086
#        198176
#
# Disc length: 3077 seconds
#
# Revision: 1
# Processed by: cddbd v1.5.2PL0 Copyright (c) Steve Scherf et al.
# Submitted via: ExactAudioCopyFreeDBPlugin 1.0
#
DISCID=9c0c030c
DTITLE=Dawn Tyler Watson - Southland
DYEAR=2013
DGENRE=Rhythm and Blues
TTITLE0=If You Only Knew
TTITLE1=Southland of the Heart
TTITLE2=Take It Nice
TTITLE3=Heaven
TTITLE4=Tell the Truth
TTITLE5=Thrill Me Up
TTITLE6=Tootsie
TTITLE7=Crosstown Traffic
TTITLE8=Good Man
TTITLE9=Rain Song
TTITLE10=Small Ceremonies
TTITLE11=Ne Me Quitte Pas
EXTD=
EXTT0=
EXTT1=
EXTT2=
EXTT3=
EXTT4=
EXTT5=
EXTT6=
EXTT7=
EXTT8=
EXTT9=
EXTT10=
EXTT11=
PLAYORDER=
